<mxfile host="app.diagrams.net" modified="2024-02-15T16:58:11.878Z" agent="Mozilla/5.0 (Macintosh; Intel Mac OS X 10.15; rv:121.0) Gecko/20100101 Firefox/121.0" version="23.1.4" etag="EWxb71eiaiKQ6qKp9C1G" type="github">
  <diagram name="Page-1" id="OElc8Rh0DSOnKhmMkdOL">
    <mxGraphModel>
      <root>
        <mxCell id="0" />
        <mxCell id="1" parent="0" />
      </root>
    </mxGraphModel>
  </diagram>
</mxfile>
